<svg width="59" height="25" viewBox="0 0 59 25" xmlns="http://www.w3.org/2000/svg"><title>logo-buscape-company</title><g fill="none" fill-rule="evenodd"><path d="M5.483 21.162a2.35 2.35 0 0 1-.765.562 2.458 2.458 0 0 1-1.056.213c-.373 0-.712-.06-1.015-.184a2.215 2.215 0 0 1-.77-.506 2.2 2.2 0 0 1-.486-.776c-.112-.3-.17-.63-.17-.988 0-.338.06-.656.18-.954a2.367 2.367 0 0 1 1.277-1.307c.296-.128.625-.193.985-.193.394 0 .74.07 1.04.21.3.138.557.327.77.565l-.59.567a1.525 1.525 0 0 0-.51-.41c-.2-.098-.436-.148-.71-.148a1.5 1.5 0 0 0-.645.135c-.19.09-.35.212-.48.367-.13.156-.23.335-.3.537a1.91 1.91 0 0 0 0 1.253c.07.203.17.38.3.537.13.156.29.28.48.373.19.093.405.14.645.14.274 0 .52-.052.735-.155.217-.103.396-.24.536-.412l.55.576zM8.334 21.162c.24 0 .457-.048.65-.144a1.54 1.54 0 0 0 .49-.378c.134-.155.236-.334.305-.537a1.853 1.853 0 0 0 0-1.233 1.65 1.65 0 0 0-.31-.54 1.57 1.57 0 0 0-.49-.383 1.408 1.408 0 0 0-.646-.145c-.24 0-.457.05-.65.145a1.528 1.528 0 0 0-.49.377 1.64 1.64 0 0 0-.306.537 1.894 1.894 0 0 0 0 1.24c.07.197.174.376.31.535.137.16.3.287.49.383.19.096.406.144.646.144m0 .775c-.36 0-.69-.064-.99-.193a2.35 2.35 0 0 1-.776-.532 2.51 2.51 0 0 1-.51-.78 2.43 2.43 0 0 1-.185-.95c0-.338.062-.654.185-.95.123-.294.294-.554.51-.78.217-.225.475-.402.776-.53.3-.13.63-.195.99-.195.353 0 .68.065.98.194a2.414 2.414 0 0 1 1.296 1.313c.123.295.185.61.185.95 0 .337-.062.654-.185.948a2.414 2.414 0 0 1-2.276 1.506M11.815 18.18v-.53c0-.15-.003-.308-.01-.474h.86l.03.696a2.39 2.39 0 0 1 .21-.263 1.63 1.63 0 0 1 .736-.464c.165-.053.353-.08.566-.08.36 0 .66.072.896.215.236.144.422.35.555.622.187-.22.415-.413.685-.582.27-.17.605-.253 1.005-.253.6 0 1.044.177 1.33.532.288.353.43.83.43 1.425v2.773h-.9v-2.704c0-.43-.084-.746-.254-.95-.17-.2-.42-.302-.745-.302-.187 0-.36.038-.516.115a1.33 1.33 0 0 0-.68.745c-.063.168-.095.345-.095.53V21.8h-.9v-2.704c0-.43-.086-.746-.256-.95-.17-.2-.413-.302-.734-.302-.247 0-.453.053-.62.16a1.268 1.268 0 0 0-.405.412c-.103.17-.176.362-.22.58a3.37 3.37 0 0 0-.064.657V21.8h-.9V18.18zM21.21 20.795c.106.085.26.168.46.248.2.08.45.12.75.12.226 0 .435-.042.625-.125.19-.083.353-.2.49-.348.137-.15.24-.323.315-.522.073-.2.11-.418.11-.656a2.6 2.6 0 0 0-.075-.636c-.05-.2-.13-.374-.24-.527a1.193 1.193 0 0 0-.425-.364 1.386 1.386 0 0 0-.64-.134 1.3 1.3 0 0 0-.82.263c-.228.176-.388.433-.48.77-.034.107-.054.22-.06.344a6.76 6.76 0 0 0-.01.38v1.185zm-.892-2.615v-.532c0-.15-.003-.306-.01-.472h.86l.03.656c.048-.06.115-.132.2-.22.088-.084.196-.167.326-.247a1.947 1.947 0 0 1 1.055-.288c.36 0 .672.067.935.2.263.132.482.31.655.536.174.226.302.484.386.776.083.29.125.6.125.924 0 .417-.07.78-.215 1.083a2.24 2.24 0 0 1-1.33 1.2 2.606 2.606 0 0 1-.835.142c-.314 0-.566-.03-.756-.094-.19-.063-.368-.13-.535-.204v2.146h-.892V18.18zM28.802 19.61a3.996 3.996 0 0 0-.42-.05c-.1-.005-.207-.01-.32-.018a6.095 6.095 0 0 0-.33-.01c-.254 0-.46.03-.615.09a1.05 1.05 0 0 0-.37.223.71.71 0 0 0-.186.298c-.032.11-.05.214-.05.314 0 .25.088.442.26.57.175.13.415.195.72.195a1.462 1.462 0 0 0 .91-.328c.122-.1.22-.215.292-.348a.833.833 0 0 0 .11-.408v-.527zm.01 1.632a1.556 1.556 0 0 1-.685.517c-.284.11-.575.167-.875.167-.194 0-.386-.024-.576-.074a1.497 1.497 0 0 1-.52-.25 1.302 1.302 0 0 1-.38-.446 1.416 1.416 0 0 1-.145-.67c0-.498.176-.895.526-1.194.35-.298.856-.447 1.516-.447.106 0 .22.004.34.01l.34.02.28.02c.08.007.137.013.17.02v-.17c0-.344-.105-.59-.315-.74-.21-.15-.495-.223-.855-.223-.354 0-.634.048-.84.144a3.32 3.32 0 0 0-.52.293l-.42-.606c.08-.067.176-.133.29-.2.113-.065.246-.127.4-.183.153-.055.326-.102.52-.138.193-.036.416-.055.67-.055.6 0 1.072.144 1.415.432.344.288.516.697.516 1.227v2.689c0 .162.003.3.01.412h-.84l-.02-.556zM30.893 18.18v-.53c0-.15-.004-.308-.01-.474h.86l.03.696c.06-.08.134-.167.22-.263.087-.098.194-.185.32-.265a1.9 1.9 0 0 1 1.02-.278c.608 0 1.058.176 1.35.527.295.35.44.828.44 1.43V21.8h-.9v-2.704c0-.43-.092-.746-.28-.95-.186-.2-.45-.302-.79-.302-.26 0-.476.053-.65.16a1.232 1.232 0 0 0-.415.412c-.103.17-.178.36-.225.576a3.11 3.11 0 0 0-.07.66V21.8h-.9V18.18zM36.155 22.932c.067.06.144.112.23.158.087.047.193.07.32.07a.525.525 0 0 0 .276-.07.692.692 0 0 0 .21-.213c.064-.096.124-.212.18-.348l.196-.473.12-.298-2.08-4.584h1.03l1.5 3.49 1.32-3.49h.98l-1.86 4.503a15.56 15.56 0 0 0-.265.7c-.09.255-.2.497-.334.725-.134.23-.297.42-.49.572-.194.152-.437.23-.73.23-.234 0-.43-.033-.59-.096-.16-.062-.3-.147-.42-.252l.41-.626zM3.625 12.306c.125.052.262.09.413.117.15.026.362.038.632.038.593 0 1.054-.19 1.38-.572.33-.383.493-.884.493-1.504 0-.227-.03-.45-.086-.667a1.923 1.923 0 0 0-.257-.582 1.38 1.38 0 0 0-.445-.418 1.273 1.273 0 0 0-.663-.163c-.5 0-.87.137-1.108.41-.24.275-.36.64-.36 1.094v2.248zM1.378 3.732h2.247v3.613c.208-.217.49-.388.85-.512s.715-.186 1.07-.186c.52 0 .982.098 1.388.295.406.196.746.462 1.022.798s.486.724.632 1.163c.146.44.22.907.22 1.403 0 .59-.098 1.132-.29 1.628a3.51 3.51 0 0 1-.835 1.272c-.364.35-.81.625-1.342.82-.53.198-1.134.296-1.81.296a8.852 8.852 0 0 1-1.77-.17 11.677 11.677 0 0 1-1.382-.357V3.732zM10.116 6.802h2.248v4.186c0 .414.1.74.304.977.203.238.502.357.897.357a1.353 1.353 0 0 0 1.06-.48c.126-.145.22-.316.282-.513a1.97 1.97 0 0 0 .094-.605V6.802h2.232v7.272H15.08l-.064-.775c-.24.278-.553.508-.944.69-.39.18-.798.27-1.225.27-.842 0-1.508-.248-1.997-.744-.49-.497-.734-1.23-.734-2.202V6.802zM19.65 11.826c.24.217.555.398.945.543.39.143.767.215 1.13.215.334 0 .61-.04.828-.124.22-.08.328-.242.328-.48a.488.488 0 0 0-.07-.255.653.653 0 0 0-.257-.217 3.218 3.218 0 0 0-.522-.21 19.024 19.024 0 0 0-.85-.248 5.624 5.624 0 0 1-.835-.286 3.026 3.026 0 0 1-.733-.442 2.045 2.045 0 0 1-.515-.636 1.84 1.84 0 0 1-.195-.868c0-.34.078-.65.234-.923.156-.273.372-.512.648-.713a3.08 3.08 0 0 1 .983-.465c.38-.108.788-.163 1.225-.163.624 0 1.17.07 1.638.21.468.14.9.343 1.295.612l-.95 1.473a4.865 4.865 0 0 0-.82-.42 2.75 2.75 0 0 0-1.04-.186c-.34 0-.592.05-.748.147-.156.1-.234.232-.234.397 0 .238.162.413.484.527.323.114.76.243 1.31.387.75.208 1.294.493 1.632.854.337.362.506.843.506 1.442 0 .403-.09.75-.273 1.04-.182.29-.427.53-.734.72a3.48 3.48 0 0 1-1.046.426 5.13 5.13 0 0 1-1.194.14 6.392 6.392 0 0 1-1.857-.264c-.583-.175-1.056-.444-1.42-.806l1.108-1.426zM32.993 13.113c-.302.33-.7.615-1.194.852-.495.238-1.08.357-1.756.357a4.36 4.36 0 0 1-1.615-.287 3.56 3.56 0 0 1-1.242-.806 3.692 3.692 0 0 1-.803-1.234 4.128 4.128 0 0 1-.29-1.566 3.866 3.866 0 0 1 1.117-2.744c.348-.35.764-.628 1.248-.83a4.068 4.068 0 0 1 1.584-.302c.666 0 1.243.108 1.732.326.49.217.9.506 1.233.868l-1.36 1.457a2.642 2.642 0 0 0-.607-.496c-.24-.145-.557-.218-.952-.218-.27 0-.512.054-.725.163a1.773 1.773 0 0 0-.89 1.038c-.078.233-.117.48-.117.737 0 .24.04.473.117.706.078.232.193.44.344.62.15.18.33.328.545.442.213.114.455.17.726.17.385 0 .708-.075.968-.225.26-.15.468-.312.624-.488l1.31 1.458zM38.268 10.864a4.743 4.743 0 0 0-.796-.062c-.624 0-1.066.088-1.326.264a.847.847 0 0 0-.39.744c0 .6.364.9 1.092.9.177 0 .352-.03.523-.086.172-.056.323-.137.453-.24.13-.103.236-.233.32-.388.083-.155.125-.335.125-.542v-.59zm0 2.528c-.25.29-.565.512-.944.667a3.34 3.34 0 0 1-1.272.23c-.26 0-.533-.035-.82-.108a2.415 2.415 0 0 1-.795-.364c-.245-.17-.448-.4-.61-.69-.16-.29-.24-.65-.24-1.085 0-.424.085-.8.257-1.132.172-.33.408-.606.71-.828.3-.223.657-.39 1.068-.505a5 5 0 0 1 1.335-.17c.26 0 .523.005.788.016.266.01.44.025.523.046v-.156a.896.896 0 0 0-.118-.473 1.035 1.035 0 0 0-.31-.325c-.132-.087-.28-.15-.446-.186a2.498 2.498 0 0 0-.53-.055c-.5 0-.914.062-1.242.186a4.008 4.008 0 0 0-.834.42l-.92-1.365c.155-.113.332-.227.53-.34.197-.114.43-.218.702-.31.27-.094.574-.17.913-.226a7.075 7.075 0 0 1 1.162-.086c1.113 0 1.935.298 2.466.892.532.594.797 1.393.797 2.395v4.234H38.33l-.062-.682zM44.29 12.15c.293.198.724.296 1.297.296.55 0 .985-.184 1.302-.55.317-.367.475-.856.475-1.466 0-.237-.028-.47-.085-.697a1.788 1.788 0 0 0-.266-.597 1.33 1.33 0 0 0-.468-.41 1.492 1.492 0 0 0-.71-.156c-.25 0-.47.046-.663.14a1.435 1.435 0 0 0-.484.37c-.13.156-.23.332-.297.528a1.85 1.85 0 0 0-.102.605v1.938zm-2.23-5.348h2.153c.02.135.037.266.047.396l.03.395c.24-.3.548-.53.922-.69a2.95 2.95 0 0 1 1.17-.24c.53 0 1 .103 1.405.31a3 3 0 0 1 1.014.83 3.6 3.6 0 0 1 .61 1.193c.135.45.203.912.203 1.388 0 .672-.115 1.256-.344 1.752-.23.496-.526.905-.89 1.224-.364.32-.775.56-1.233.714-.458.155-.91.232-1.357.232a3.41 3.41 0 0 1-.874-.093 11.95 11.95 0 0 1-.625-.186v3.148h-2.23V6.802zM55.9 9.67c0-.154-.03-.312-.092-.472a1.38 1.38 0 0 0-.28-.442 1.503 1.503 0 0 0-.47-.334 1.57 1.57 0 0 0-.67-.13c-.26 0-.49.043-.687.13-.197.088-.36.2-.49.334s-.23.28-.297.442c-.068.16-.1.318-.1.472H55.9zm1.968 3.613a7.864 7.864 0 0 0-.375.256 3.44 3.44 0 0 1-.648.348c-.265.114-.58.214-.944.302-.363.088-.78.132-1.247.132-.624 0-1.186-.095-1.685-.287a3.66 3.66 0 0 1-1.272-.798 3.367 3.367 0 0 1-.796-1.233 4.447 4.447 0 0 1-.273-1.59c0-.506.085-.994.257-1.465.172-.47.42-.882.74-1.233.324-.35.72-.633 1.188-.845.468-.212.998-.318 1.59-.318.594 0 1.114.104 1.562.31.447.207.824.494 1.13.86.308.368.54.807.696 1.32.156.51.233 1.07.233 1.68v.373h-5.21c.01.393.183.736.52 1.03.34.296.805.443 1.398.443.583 0 1.057-.085 1.42-.256.365-.17.63-.318.797-.442l.92 1.41z" fill="#FFF"/><path d="M55.255 4.352l-2.41.78c-.414.113-.853-.066-1.03-.444l-.005-.008c-.177-.378-.033-.828.322-1.07l2.15-1.333 1.568-.974c.63-.353 1.433-.258 1.892.296 0 0 .185.218.258.572.133.708-.308 1.36-.985 1.612l-1.76.568z" fill="#ED1C24"/></g></svg>