<?xml version="1.0" encoding="UTF-8" standalone="no"?>
<svg width="87px" height="56px" viewBox="0 0 87 56" version="1.1" xmlns="http://www.w3.org/2000/svg" xmlns:xlink="http://www.w3.org/1999/xlink" xmlns:sketch="http://www.bohemiancoding.com/sketch/ns">
    <!-- Generator: Sketch 3.5.1 (25234) - http://www.bohemiancoding.com/sketch -->
    <title>Group 5</title>
    <desc>Created with Sketch.</desc>
    <defs></defs>
    <g id="Sembanner" stroke="none" stroke-width="1" fill="none" fill-rule="evenodd" sketch:type="MSPage">
        <g id="Desktop-HD" sketch:type="MSArtboardGroup" transform="translate(-130.000000, -32.000000)">
            <g id="Site" sketch:type="MSLayerGroup" transform="translate(-1.000000, 0.000000)">
                <g id="UI_HeaderAutoComplete-5" transform="translate(1.000000, 0.000000)" sketch:type="MSShapeGroup">
                    <g id="Header">
                        <g id="Group-5" transform="translate(130.000000, 32.000000)">
                            <g id="lg_bp-copy" transform="translate(0.090215, 0.000000)">
                                <path d="M15.5759728,55.6024495 C9.89790202,57.0662908 3.78691031,54.4025551 1.21730312,49.0231903 C-1.40737527,43.529212 0.430626239,37.2471264 5.22946997,33.9420034 L34.3965576,15.8808673 L55.6819613,2.6768021 C64.2516529,-2.08544216 75.3332034,-0.4924274 81.8350477,7.44949971 C81.8350477,7.44949971 84.4551368,10.5929692 85.587156,15.5971337 C87.6485019,25.6054626 81.7872428,34.6233374 72.5413992,37.9702737 L48.4978459,45.399987 L15.5759728,55.6024495 Z" id="Fill-1" fill="#312F25"></path>
                                <path d="M19.2048534,37.4759748 L21.8448788,36.2672403 L24.1821578,41.0664963 C24.4132415,41.5411439 24.7136885,41.8600536 25.0846487,42.0228536 C25.4563753,42.1863971 25.8737055,42.1618655 26.3374057,41.9492591 C26.6060453,41.8266015 26.8202671,41.666775 26.9793048,41.4701512 C27.1383425,41.2750142 27.2498605,41.0601776 27.3161581,40.8271282 C27.3813061,40.5937071 27.396635,40.3480203 27.3602288,40.0889527 C27.3238226,39.8313718 27.2479443,39.5827115 27.1322109,39.3459452 L24.9417064,34.8481294 L27.5629539,33.6472004 L31.623205,41.9845696 L29.0943143,43.1431261 L28.5876931,42.28824 C28.4619958,42.737241 28.2213316,43.1698877 27.8641674,43.5872951 C27.5066201,44.0047025 27.0777932,44.3277008 26.5769203,44.557405 C25.5870545,45.0108663 24.6669353,45.0852042 23.8154131,44.7785603 C22.9631244,44.4730314 22.2671909,43.763476 21.7245467,42.6491506 L19.2048534,37.4759748" id="Fill-4" fill="#FFFFFF"></path>
                                <path d="M33.2089831,38.1052453 C33.612134,38.2260444 34.082349,38.2639568 34.621161,38.219354 C35.159973,38.1758663 35.6432176,38.0558106 36.0708948,37.8591868 C36.4621658,37.6800324 36.7629961,37.4848954 36.9733857,37.2722889 C37.1841585,37.0604259 37.2224809,36.8173409 37.0891192,36.5452641 C37.0377672,36.4385892 36.9630387,36.353844 36.8645503,36.2899134 C36.7664451,36.2259827 36.6254189,36.1895572 36.4407053,36.1791499 C36.2563749,36.1694859 36.0130281,36.1832384 35.7102817,36.2211508 C35.4075352,36.2575764 35.0277609,36.3159316 34.5724916,36.3943581 C34.2026811,36.4623773 33.8217571,36.5021481 33.4316358,36.5140422 C33.0418977,36.5263079 32.6724704,36.489139 32.3229707,36.4025353 C31.9746208,36.3159316 31.6553957,36.1650257 31.3633796,35.9501891 C31.0725131,35.7364676 30.8349146,35.4394876 30.6494345,35.0596208 C30.4593558,34.668975 30.3792621,34.2746124 30.4091535,33.8765328 C30.4405778,33.4780816 30.5609099,33.0892943 30.7716828,32.7105426 C30.983222,32.3310475 31.2813698,31.9768273 31.6672756,31.647882 C32.0524151,31.3196801 32.5015528,31.037196 33.0146888,30.8022882 C33.747795,30.4655374 34.4283997,30.2525593 35.0561194,30.1603803 C35.6842225,30.068573 36.3058107,30.0700597 36.9193512,30.1655839 L36.6242693,32.3667297 C36.2559917,32.3176667 35.8574394,32.3046575 35.4278461,32.3277023 C34.9982527,32.3503754 34.5575459,32.4655991 34.1049592,32.6726302 C33.7018082,32.8566166 33.4366177,33.0480367 33.3078547,33.2439171 C33.1798581,33.4409126 33.1610801,33.6345629 33.2530537,33.8233812 C33.3867987,34.0965731 33.6742162,34.2114252 34.1164559,34.1675658 C34.5586956,34.1240781 35.1438776,34.0374744 35.8723851,33.9066397 C36.8676161,33.7408661 37.6647206,33.7739465 38.2636986,34.0066242 C38.8626767,34.2404169 39.3298259,34.700197 39.6639966,35.3878227 C39.8893319,35.8498329 39.9759404,36.2962321 39.9242053,36.7247902 C39.8717037,37.154835 39.7187976,37.5625785 39.4651037,37.9461622 C39.2114099,38.3308609 38.8810714,38.6809925 38.4744714,38.9980437 C38.0690212,39.3150949 37.6271647,39.5819681 37.1504349,39.8001499 C36.3809225,40.1525116 35.604512,40.3851893 34.8223532,40.4970679 C34.039428,40.6093181 33.3342971,40.5557948 32.7038947,40.3368696 L33.2089831,38.1052453" id="Fill-5" fill="#FFFFFF"></path>
                                <path d="M49.5986779,32.4016685 C49.4285268,32.9432203 49.1207984,33.4832852 48.6728104,34.0214918 C48.2248223,34.56007 47.6043838,35.0116728 46.8099618,35.3748136 C46.1140283,35.6948383 45.4276753,35.8747361 44.7532023,35.9152502 C44.0779628,35.9565078 43.4418121,35.8706475 42.8451334,35.6584127 C42.2488379,35.446178 41.7046608,35.1198345 41.2129853,34.6778956 C40.7220762,34.2367 40.3181588,33.689573 40.0000835,33.0376294 C39.6996364,32.4217398 39.5344671,31.7913542 39.5038093,31.1453577 C39.4731514,30.4993612 39.565125,29.8812414 39.7778139,29.29137 C39.9912693,28.7011269 40.3250568,28.1588318 40.7803261,27.6682016 C41.2363619,27.1764562 41.8004666,26.7768899 42.4726403,26.4687593 C43.2547991,26.1111939 43.9932704,25.9246057 44.6888208,25.9101098 C45.3839879,25.8956139 46.0281863,26.0067491 46.621416,26.2420286 L45.8411733,28.6438868 C45.5411094,28.5201141 45.2111541,28.4394575 44.8497746,28.4022885 C44.4872453,28.3654912 44.0741306,28.4535817 43.6092807,28.6654447 C43.2915886,28.8122621 43.0375115,29.004054 42.8481992,29.2430504 C42.6588869,29.4824185 42.523609,29.7433446 42.4442818,30.0262003 C42.3653378,30.3086844 42.3454102,30.6045494 42.3837325,30.9130517 C42.4220548,31.2215541 42.5136452,31.5241094 42.6581204,31.8207177 C42.7907157,32.0931662 42.9669984,32.3414548 43.1885015,32.5655836 C43.4100046,32.7900842 43.6602494,32.9658933 43.9377031,33.0918961 C44.2166896,33.2186423 44.5133045,33.2900067 44.8267812,33.3045026 C45.1410243,33.3212286 45.4564171,33.2558112 45.7733428,33.1097372 C46.2263127,32.9027061 46.563166,32.6443818 46.7850523,32.3317909 C47.0077051,32.0210584 47.1598447,31.7218483 47.2453035,31.4363907 L49.5986779,32.4016685" id="Fill-6" fill="#FFFFFF"></path>
                                <path d="M55.9502212,29.8834715 C55.8183924,30.3503137 55.5727462,30.7740398 55.2140492,31.1561367 C54.8538193,31.5382336 54.3993164,31.8552848 53.849391,32.1069187 C53.5443452,32.2470457 53.2028932,32.3526055 52.8265679,32.4235982 C52.4502426,32.4945909 52.0700851,32.4975644 51.6880114,32.4340055 C51.3055546,32.3700749 50.9391931,32.2158237 50.5881605,31.9701369 C50.237128,31.7255652 49.9408963,31.3538756 49.698316,30.8561832 C49.4618672,30.3700132 49.3514989,29.8923921 49.3687439,29.4199746 C49.3856058,28.9479288 49.5090037,28.5045032 49.7393209,28.0863524 C49.9696381,27.6696883 50.2942282,27.2853613 50.7134745,26.9341146 C51.1327209,26.5824963 51.6228635,26.2773391 52.1850521,26.0201299 C52.4904811,25.8800029 52.8028081,25.7450796 53.1197338,25.6135015 C53.4370427,25.4830385 53.6501148,25.4072138 53.7593335,25.3856558 L53.6734915,25.2079882 C53.5688715,24.9946383 53.4351266,24.8355552 53.271107,24.7288803 C53.1078538,24.6229487 52.9246731,24.5545579 52.7230976,24.5233359 C52.5219054,24.4932291 52.3122822,24.5017779 52.0972939,24.5500976 C51.881156,24.5980455 51.6627187,24.6720118 51.4438982,24.772368 C50.8575665,25.0414712 50.4057462,25.3347343 50.0899702,25.6540157 C49.7741942,25.9718103 49.5254823,26.2821711 49.343068,26.5824963 L47.500147,25.5138887 C47.6197127,25.2997955 47.7638047,25.0745516 47.9331894,24.8377853 C48.1014244,24.6006474 48.3183288,24.3560756 48.5842858,24.1036984 C48.8502428,23.8516928 49.1660188,23.6019174 49.5308474,23.3547439 C49.8968257,23.107942 50.3356164,22.8667154 50.8487524,22.6314359 C52.1563103,22.0322723 53.2875856,21.930801 54.2429613,22.3266504 C55.1975706,22.7232432 55.9548199,23.4959859 56.5147091,24.6448784 L58.8788138,29.4980294 L56.4039576,30.6324261 L55.9502212,29.8834715 L55.9502212,29.8834715 Z M54.5391929,26.9857795 C54.4713624,27.0025055 54.3483477,27.0404178 54.168616,27.1010033 C53.9892675,27.161217 53.7896081,27.2422453 53.5696379,27.3429732 C52.8365317,27.6789806 52.365167,28.0179615 52.1586097,28.3588008 C51.9509026,28.7003836 51.9374898,29.0546038 52.1164551,29.4225764 C52.4510091,30.1098305 53.0453884,30.2573913 53.9007429,29.8652588 C54.1084499,29.7708496 54.2977622,29.6444751 54.4671469,29.4865071 C54.6369149,29.3289107 54.7698934,29.1553316 54.8649328,28.9676284 C54.9603554,28.7791818 55.012857,28.5732657 55.0243537,28.3506237 C55.0347007,28.1279816 54.9841152,27.8986491 54.8679985,27.6611395 L54.5391929,26.9857795 L54.5391929,26.9857795 Z" id="Fill-7" fill="#FFFFFF"></path>
                                <path d="M78.9106631,19.212635 C78.8416829,19.3163364 78.7428112,19.4817383 78.6132818,19.7069822 C78.4849019,19.9329695 78.2963561,20.1831166 78.0476441,20.455565 C77.7996987,20.7287569 77.4858388,21.0138428 77.1079806,21.3097077 C76.7289727,21.6066877 76.2648893,21.881738 75.7149638,22.1330002 C74.9810912,22.4686359 74.2682958,22.6615428 73.5750448,22.7113492 C72.8814106,22.7607839 72.2349129,22.6838441 71.6347851,22.4801582 C71.0350406,22.2764723 70.4935461,21.9478987 70.0118344,21.4951808 C69.528973,21.0417195 69.1277382,20.4838134 68.8046809,19.8192324 C68.5210957,19.239025 68.3490284,18.6327993 68.2880959,18.000927 C68.2275466,17.3694263 68.2880959,16.7654308 68.4708934,16.1889402 C68.6525413,15.613193 68.9606528,15.0768449 69.3913958,14.5813827 C69.8244382,14.0877789 70.38701,13.6800354 71.0844765,13.3607541 C71.78041,13.0418444 72.4487515,12.8805311 73.0906505,12.8768142 C73.7310167,12.873469 74.333827,12.9991001 74.8998478,13.2540792 C75.464719,13.510545 75.9824537,13.8892967 76.4519022,14.3921927 C76.9202011,14.8943453 77.3245017,15.4961108 77.6655705,16.1952589 L77.8728943,16.6208435 L71.7505186,19.4263565 C71.9823687,19.871269 72.3790048,20.1712225 72.9408102,20.3269604 C73.5022324,20.4830701 74.1318683,20.4009267 74.8285683,20.0823887 C75.5118554,19.7690544 76.0203928,19.4163209 76.3534139,19.0249318 C76.6856685,18.633171 76.914836,18.3216951 77.0409165,18.0901325 L78.9106631,19.212635 L78.9106631,19.212635 Z M74.5840718,16.1279831 C74.4978465,15.9503155 74.3725325,15.7867721 74.2092794,15.6362378 C74.0471759,15.4864469 73.8555643,15.3678779 73.6332947,15.2809025 C73.4114084,15.1939272 73.166912,15.1504395 72.8967395,15.1504395 C72.6277168,15.1504395 72.3402993,15.2199454 72.0352535,15.3604441 C71.7294413,15.5005711 71.485328,15.6745218 71.3029137,15.8804378 C71.1193498,16.0874689 70.9894371,16.3037923 70.9112595,16.5275494 C70.8334652,16.7520499 70.7989751,16.9743203 70.8097053,17.1936172 C70.8200524,17.4144008 70.8683385,17.612883 70.954947,17.7905507 L74.5840718,16.1279831 L74.5840718,16.1279831 Z" id="Fill-8" fill="#FFFFFF"></path>
                                <path d="M18.5824987,40.7078159 C18.1651685,40.2833463 17.7010851,39.9510558 17.1906316,39.7146613 C16.678262,39.477895 16.1302527,39.3563525 15.5435378,39.3489187 C14.9572061,39.3426 14.3589945,39.4790101 13.7473701,39.7581489 C13.3327225,39.948454 12.9491159,40.2123536 12.5965505,40.5472459 C12.2443682,40.88251 12.0067698,41.2304114 11.8833719,41.5909503 L9.86723399,37.4529301 C9.14370836,37.9067631 8.56235859,38.2728773 8.14809418,38.5375203 C7.89516679,38.699577 7.65335288,38.8727843 7.41996988,39.0567707 L12.8460288,50.1963078 C13.342303,50.1420411 13.9493288,50.0305342 14.6667228,49.8610438 C15.3841169,49.6926684 16.1095586,49.4406628 16.843048,49.1042837 C17.6363203,48.7400279 18.2900993,48.302921 18.804385,47.7929629 C19.3179042,47.2818897 19.6896308,46.7269571 19.921481,46.1277935 C20.1525646,45.5293732 20.2430053,44.8930407 20.1920366,44.2213976 C20.1410679,43.5486394 19.9513724,42.8747662 19.6221835,42.1990345 C19.3451131,41.6299777 18.9986792,41.1337721 18.5824987,40.7078159 M17.2699588,45.4940627 C17.098658,46.109209 16.6652324,46.5764228 15.9681492,46.8949608 C15.6508403,47.0410348 15.3956136,47.1395326 15.2043851,47.1908257 C15.0127735,47.2424906 14.8288263,47.2725974 14.65331,47.2800312 L13.3982536,44.7023639 C13.1445598,44.1812551 13.081328,43.6991737 13.2089413,43.2564914 C13.3373211,42.8138091 13.6948685,42.4577305 14.2815834,42.1886272 C14.5862459,42.0485002 14.8771124,41.9920034 15.1511171,42.0183934 C15.425505,42.045155 15.6776659,42.12544 15.9072167,42.2588765 C16.1371507,42.3934282 16.345241,42.569609 16.5345533,42.7870474 C16.7227159,43.0063443 16.8813704,43.2442256 17.0074508,43.5051517 C17.3535015,44.2165656 17.4416429,44.8796598 17.2699588,45.4940627" id="Fill-9" fill="#FFFFFF"></path>
                                <path d="M66.5831354,18.8476359 C66.1727032,18.4049535 65.7120688,18.0585388 65.2008489,17.806905 C64.689629,17.5556428 64.1374041,17.4199761 63.546857,17.4017633 C62.9543938,17.3824355 62.347368,17.515872 61.7238637,17.8017013 C61.2471339,18.0198831 60.8336359,18.3216951 60.4833698,18.7071372 C60.1327205,19.0922076 59.9012536,19.5211374 59.7874363,19.9931832 C59.7000614,19.8452507 59.6142193,19.6999201 59.529527,19.5568196 C59.4448346,19.4144625 59.352861,19.2717337 59.2539894,19.1286332 L56.7243323,20.2875613 L62.3623137,31.8630903 C63.3176895,31.5623934 64.2427906,31.2661568 65.1353177,30.9751239 L63.3801549,27.3715933 C63.6346152,27.3411147 63.913985,27.3006006 64.2174978,27.2481923 C64.5202442,27.1968992 64.8793245,27.0753567 65.2947386,26.8846799 C65.8209042,26.6438251 66.3091307,26.3115346 66.7601845,25.8878084 C67.2112384,25.4637106 67.5611213,24.9697351 67.8098332,24.4062537 C68.0585451,23.8435157 68.1788773,23.2157319 68.1704463,22.5236459 C68.1627819,21.8315599 67.9711702,21.1008182 67.5952281,20.3299339 C67.3300376,19.785037 66.9924179,19.2903182 66.5831354,18.8476359 M65.2414705,23.5286946 C65.0732355,24.1200527 64.6654859,24.5642218 64.0182217,24.8608301 C63.3464312,25.1693324 62.7842426,25.2886448 62.3328055,25.2198822 L61.2501997,22.9975502 C61.1344662,22.7604122 61.0616538,22.5121235 61.0321456,22.2500824 C61.0011045,21.9884129 61.0194992,21.7338055 61.0854136,21.4862603 C61.1520945,21.2383433 61.2720434,21.0090108 61.44641,20.7986345 C61.6200102,20.5882582 61.8533932,20.4165376 62.1469422,20.281986 C62.4768975,20.1307083 62.7834762,20.0630608 63.0674446,20.0779284 C63.3514131,20.092796 63.6112385,20.1660188 63.8473041,20.2968536 C64.0818368,20.4284317 64.2975915,20.6087011 64.4922689,20.8380336 C64.6861799,21.0684812 64.8494331,21.3197433 64.9824116,21.5925635 C65.3227139,22.2920833 65.4093223,22.9377081 65.2414705,23.5286946" id="Fill-10" fill="#FFFFFF"></path>
                                <path d="M71.0469206,10.4693807 L68.6548406,12.6578891 C68.2306124,13.0113659 67.6151558,13.0418444 67.1959094,12.7036069 L67.1863289,12.6965448 C66.7670826,12.3586789 66.685456,11.7662057 66.965209,11.2971335 L68.7452813,8.61502137 L70.0436419,6.65510215 C70.5866694,5.91209466 71.5811339,5.58946809 72.4292071,5.97751203 C72.4292071,5.97751203 72.7683597,6.12916138 73.0530946,6.49490394 C73.6034033,7.23456623 73.4489643,8.2176852 72.7951853,8.87223057 L71.0469206,10.4693807" id="Fill-11" fill="#D8272D"></path>
                            </g>
                        </g>
                    </g>
                </g>
            </g>
        </g>
    </g>
</svg>